<svg id="Layer_1" data-name="Layer 1" xmlns="http://www.w3.org/2000/svg" viewBox="0 0 311.28 54"><defs><style>.cls-1{fill:#fff;}</style></defs><path class="cls-1" d="M46.06-13.49v-54h24a11.53,11.53,0,0,1,8.46,3.54,11.55,11.55,0,0,1,3.53,8.44v30A11.57,11.57,0,0,1,78.53-17a11.51,11.51,0,0,1-8.46,3.56Zm12-6h6a5.78,5.78,0,0,0,4.26-1.78,5.74,5.74,0,0,0,1.75-4.19v-30a5.7,5.7,0,0,0-1.78-4.21,5.83,5.83,0,0,0-4.23-1.76H58Z" transform="translate(22.28 67.49)"/><path class="cls-1" d="M110.05-37.51v-6a5.75,5.75,0,0,0-1.78-4.24A5.81,5.81,0,0,0,104-49.49H98c-3.55,0-5.53,2-6,6H86q1.36-12,12-12h12A11.5,11.5,0,0,1,118.51-52,11.65,11.65,0,0,1,122-43.48v30h-12v-6q-.69,6-6,6H98A11.54,11.54,0,0,1,89.57-17,11.52,11.52,0,0,1,86-25.48v-.05A11.51,11.51,0,0,1,89.58-34,11.51,11.51,0,0,1,98-37.51Zm0,6h-6a5.82,5.82,0,0,0-4.25,1.75A5.74,5.74,0,0,0,98-25.53v.05a5.71,5.71,0,0,0,1.76,4.19A5.75,5.75,0,0,0,104-19.51a5.78,5.78,0,0,0,4.26-1.78,5.74,5.74,0,0,0,1.75-4.19Z" transform="translate(22.28 67.49)"/><path class="cls-1" d="M129.05-67.49h12v12h6v6h-6v24A5.31,5.31,0,0,0,143-21a5.81,5.81,0,0,0,3.54,1.54h.56v6h-6A11.53,11.53,0,0,1,132.57-17a11.59,11.59,0,0,1-3.52-8.46v-24h-6v-6h6Z" transform="translate(22.28 67.49)"/><path class="cls-1" d="M172.07-37.51v-6a5.75,5.75,0,0,0-1.78-4.24,5.81,5.81,0,0,0-4.24-1.77h-6q-5.32,0-6,6h-6q1.38-12,12-12h12A11.52,11.52,0,0,1,180.53-52a11.64,11.64,0,0,1,3.52,8.48v30h-12v-6q-.7,6-6,6h-6A11.56,11.56,0,0,1,151.58-17a11.56,11.56,0,0,1-3.53-8.46v-.05A11.52,11.52,0,0,1,151.6-34,11.51,11.51,0,0,1,160-37.51Zm0,6h-6a5.8,5.8,0,0,0-4.24,1.75A5.74,5.74,0,0,0,160-25.53v.05a5.74,5.74,0,0,0,1.75,4.19,5.78,5.78,0,0,0,4.26,1.78,5.78,5.78,0,0,0,4.27-1.78,5.74,5.74,0,0,0,1.75-4.19Z" transform="translate(22.28 67.49)"/><path class="cls-1" d="M189-13.49v-54h12v18A7.36,7.36,0,0,1,202.88-54,5.6,5.6,0,0,1,207-55.51h6A11.5,11.5,0,0,1,221.5-52,11.65,11.65,0,0,1,225-43.48v18A11.57,11.57,0,0,1,221.5-17,11.51,11.51,0,0,1,213-13.49Zm12-6h6a5.78,5.78,0,0,0,4.26-1.78A5.74,5.74,0,0,0,213-25.48v-18a5.75,5.75,0,0,0-1.78-4.24A5.81,5.81,0,0,0,207-49.49a5.8,5.8,0,0,0-4.25,1.77A5.78,5.78,0,0,0,201-43.48Z" transform="translate(22.28 67.49)"/><path class="cls-1" d="M241-55.51h12A11.49,11.49,0,0,1,261.47-52,11.65,11.65,0,0,1,265-43.48v18A11.57,11.57,0,0,1,261.47-17,11.5,11.5,0,0,1,253-13.49H241A11.54,11.54,0,0,1,232.53-17,11.52,11.52,0,0,1,229-25.48v-18a11.57,11.57,0,0,1,3.54-8.5A11.52,11.52,0,0,1,241-55.51Zm0,12v18a5.71,5.71,0,0,0,1.76,4.19A5.75,5.75,0,0,0,247-19.51a5.75,5.75,0,0,0,4.26-1.78A5.75,5.75,0,0,0,253-25.48v-18a5.76,5.76,0,0,0-1.79-4.24A5.81,5.81,0,0,0,247-49.49a5.8,5.8,0,0,0-4.25,1.77A5.78,5.78,0,0,0,241-43.48Z" transform="translate(22.28 67.49)"/><path class="cls-1" d="M271-67.49h12v12h6v6h-6v24A5.32,5.32,0,0,0,284.9-21a5.79,5.79,0,0,0,3.54,1.54H289v6h-6A11.51,11.51,0,0,1,274.52-17,11.55,11.55,0,0,1,271-25.48v-24h-6v-6h6Z" transform="translate(22.28 67.49)"/><path class="cls-1" d="M22-13.49H-12.54a9.74,9.74,0,0,1-9.74-9.74V-57.76a9.73,9.73,0,0,1,9.74-9.73H22a9.72,9.72,0,0,1,9.73,9.73v34.53A9.73,9.73,0,0,1,22-13.49ZM-18-40.44c-1.24,0-1.57.35-1.57,1.56q0,4.49,0,9c0,1.23.31,1.53,1.56,1.54h4.1v4.45c0,3,1.36,4.34,4.31,4.34H19c3,0,4.32-1.34,4.32-4.32v-4.48h4.08c1.32,0,1.6-.29,1.6-1.61,0-2.86,0-5.72,0-8.59,0-1.65-.25-1.9-1.94-1.9H23.33V-45c0-2.87-1.39-4.25-4.29-4.25H5.82c0-1.37,0-2.61,0-3.85a1.37,1.37,0,0,1,.81-1.42,3.67,3.67,0,0,0,1.26-5.25,3.74,3.74,0,0,0-3.95-1.62,3.71,3.71,0,0,0-2.88,2.91,3.77,3.77,0,0,0,1.75,4c.31.2.79.48.8.75.08,1.47,0,2.94,0,4.48H-9.74c-2.73,0-4.15,1.44-4.15,4.19,0,1.48,0,3,0,4.57C-15.36-40.45-16.68-40.46-18-40.44Zm28.81,7.78c2.23,0,3.52,1.4,3.53,3.76,0,2.55-1.21,4-3.5,4q-6.1,0-12.22,0c-2.35,0-3.53-1.42-3.51-4.07,0-2.34,1.3-3.67,3.59-3.68,2,0,4,0,6.05,0S8.8-32.68,10.82-32.66ZM-6-38.57a4,4,0,0,1,3.93-3.91,4,4,0,0,1,3.9,4,3.92,3.92,0,0,1-4,3.88A3.86,3.86,0,0,1-6-38.57Zm13.73,0a4,4,0,0,1,3.91-3.95,4,4,0,0,1,3.92,3.93,3.89,3.89,0,0,1-3.9,3.92A3.9,3.9,0,0,1,7.68-38.53Z" transform="translate(22.28 67.49)"/></svg>