<svg xmlns="http://www.w3.org/2000/svg" viewBox="0 0 500 500"><defs><style>.cls-1{fill:#b3b3b3;}.cls-2{fill:#010101;}.cls-3{fill:#1f1f1f;}.cls-4{fill:#a8a8a8;}.cls-5{fill:#cacaca;}.cls-6{fill:#3b3b3b;}.cls-7{fill:#545454;}.cls-8{fill:#d3d4d5;}.cls-9{fill:#c8c8c8;}.cls-10{fill:#090909;}.cls-11{fill:#d9c1bd;}.cls-12{fill:#d6d6d6;}.cls-13{fill:#d6d8d9;}.cls-14{fill:#d9c7c6;}.cls-15{fill:#d7d7d7;}.cls-16{fill:#c5c5c5;}.cls-17{fill:#cdcdcd;}.cls-18{fill:#b9b9b9;}.cls-19{fill:#a6aaac;}.cls-20{fill:#bcbcbc;}.cls-21{fill:#c0c3c5;}.cls-22{fill:#dadcdc;}.cls-23{fill:#586f79;}.cls-24{fill:#e4452a;}.cls-25{fill:#39484f;}.cls-26{fill:#c86059;}.cls-27{fill:#8f5245;}.cls-28{fill:#d06451;}.cls-29{fill:#c65c48;}.cls-30{fill:#664c47;}.cls-31{fill:#da2e22;}.cls-32{fill:#272727;}.cls-33{fill:#252525;}.cls-34{fill:#313131;}.cls-35{fill:#343434;}.cls-36{fill:#7b524b;}.cls-37{fill:#8ea2aa;}.cls-38{fill:#516169;}.cls-39{fill:#4f5f66;}.cls-40{fill:#954e3f;}.cls-41{fill:#a54a3a;}.cls-42{fill:#e4462b;}.cls-43{fill:#8da1a9;}</style></defs><title>Asset 1</title><g id="Layer_2" data-name="Layer 2"><g id="Layer_1-2" data-name="Layer 1"><rect class="cls-1" width="500" height="500"/><path d="M193.41,250.3c0-3.82,0-7.63,0-11.45,0-1.1.27-1.54,1.46-1.53,4.69.06,9.39,0,14.08.05a7.4,7.4,0,0,1,7.73,7.68q.14,5.43,0,10.88c-.11,4.59-3.12,7.59-7.74,7.67s-9.38,0-14.07,0c-1.19,0-1.47-.43-1.46-1.53C193.45,258.18,193.41,254.24,193.41,250.3Z"/><path class="cls-2" d="M136.06,243.76c1.88,0,3.75,0,5.63,0,1.05,0,1.39.39,1.44,1.43.16,3.57.2,3.56-3.38,3.56-1.94,0-3.88,0-5.82,0-1.59,0-2.27.68-2.23,2.26.06,1.94.07,3.89,0,5.82-.07,1.66.73,2.28,2.28,2.17,2.55-.17,5.1-.29,7.64-.55,1.19-.12,1.62.25,1.5,1.41a8,8,0,0,0,0,1.69c.14,1.38-.5,1.92-1.83,2-3.43.13-6.86.4-10.29.44-3.87.05-5.88-2-5.91-5.89,0-2.82,0-5.63,0-8.45,0-3.53,2.2-5.73,5.72-5.83C132.56,243.72,134.31,243.76,136.06,243.76Z"/><path class="cls-2" d="M121.68,254.05c0,2.68,0,5.37,0,8.05,0,1.13-.38,1.51-1.52,1.55-5,.19-5,.22-5-4.75,0-2.56,0-5.12,0-7.67,0-1.14-.31-1.85-1.58-1.73-1,.09-1.32-.32-1.31-1.29,0-4.55-.34-3.61,3.45-3.69,1.37,0,2.75.06,4.12,0s1.86.53,1.82,1.88C121.63,248.93,121.68,251.49,121.68,254.05Z"/><path class="cls-3" d="M335.87,243.68c1.88,0,3.76,0,5.63,0,1.29,0,1.86.47,1.76,1.76a10.6,10.6,0,0,0,0,1.69c.1,1.14-.38,1.57-1.51,1.55-2.69,0-5.38,0-8.07,0-1,0-2.08,0-2.09,1.27s1.16,1.24,2.08,1.26c1.88,0,3.76,0,5.63,0,3.73.06,5.78,2.13,5.83,5.83.07,5.17-1.75,7.08-6.9,7-3.68-.06-7.36-.34-11-.46-1.5,0-2.2-.66-2.06-2.18a6.47,6.47,0,0,0,0-1.32c-.18-1.47.49-1.8,1.87-1.68,3,.25,6,.36,9,.5a4.91,4.91,0,0,0,1.48-.15,1.25,1.25,0,0,0,.93-1.43c-.06-.85-.6-1-1.3-1-2.12,0-4.25,0-6.38,0-4.06-.06-5.94-2.13-5.93-6.46,0-4.11,2-6.15,6.05-6.19C332.5,243.67,334.18,243.68,335.87,243.68Z"/><path class="cls-4" d="M89.74,250.46c0-3.82.06-7.63,0-11.44,0-1.48.53-2.08,2-2h.19c5.15-.15,5.19-.16,5.39,5,.05,1.25.56,1.52,1.61,1.31a30.79,30.79,0,0,1,6-.25c3.58,0,6,2.22,6,5.76.08,4.5,0,9,0,13.5,0,1.12-.47,1.61-1.52,1.67h-.57c-6.33,0-5.4.74-5.46-5.28,0-2.68,0-5.37,0-8.06,0-1.29-.43-1.76-1.74-1.73-5.38.12-4.25-.46-4.35,4.19q-.09,4.39,0,8.81c0,1.55-.62,2.11-2.13,2.09-6.64-.1-5.29.66-5.41-5.28C89.69,256,89.74,253.21,89.74,250.46Z"/><path class="cls-5" d="M257.24,261.74l-1.12-1.37c0,.85,0,1.44,0,2a1.52,1.52,0,0,1-1.42,1.85c-2.88.24-5.77,1.1-8.65-.22a5.46,5.46,0,0,1-3.47-5.07c0-2.69,0-5.38,0-8.07,0-.57.26-1.43-.69-1.46-1.59-.05-1.58-1.08-1.56-2.2,0-.82,0-1.63,0-2.44,0-.59.09-1.37.64-1.44,1.82-.24,1.7-1.65,2-2.87a2.18,2.18,0,0,1,2.49-2c.56,0,1.13,0,1.69,0,2.85,0,3,.05,3,2.93,0,1.24.4,1.61,1.62,1.61,2.87,0,2.93.11,2.93,3a11.63,11.63,0,0,0,0,1.32c.15,1.5-.42,2.16-2,2.1-2.67-.1-2.51-.34-2.51,2.5,0,1.5.06,3,0,4.5-.07,1.22.36,1.66,1.6,1.64,1.41,0,2.88-.32,4.35.45.14-1.72,0-3.41.84-5,1.28-2.35,3.44-2.91,5.81-3,1.88-.09,3.76,0,5.63,0,.76,0,1.42,0,1.26-1.08a.34.34,0,0,1,.14-.53.51.51,0,0,1,.52.28c.2,1.89-.18,2.44-2,2.55s-3.62.07-5.43,0a5.19,5.19,0,0,0-5.19,3c-1,1.57-.75,3.22-.39,4.9C257.41,260.31,257.85,261,257.24,261.74Z"/><path class="cls-4" d="M279.7,250.36c0-3.81.05-7.63,0-11.44,0-1.39.53-1.94,1.85-1.91s2.63,0,3.94,0,1.75.62,1.78,1.86c0,1.41-.64,3.21.32,4.15s2.74,0,4.14,0c6.72-.33,9.07,1.64,8.68,8.55-.12,2.12,0,4.25,0,6.38-.05,3.66-2.34,6-6,6-4.19,0-8.38,0-12.57,0-1.57,0-2.22-.5-2.17-2.18C279.78,258,279.7,254.17,279.7,250.36Z"/><path class="cls-6" d="M146.37,248.77c0-3.25,0-6.51,0-9.76,0-1.28.38-1.75,1.7-1.78,5.12-.12,5.12-.16,5.12,4.9,0,4.69,0,9.38,0,14.07,0,1.6.45,2.57,2.22,2.43,1-.08,1.28.42,1.35,1.33.3,3.65-.07,4.1-3.68,4.16-4.65.08-6.66-1.88-6.67-6.53C146.36,254.65,146.37,251.71,146.37,248.77Z"/><path class="cls-7" d="M319.55,243.74l.73.39a3.06,3.06,0,0,1,1.46,1.53h0a8.46,8.46,0,0,1,1,4.28c-.06,4-.07,8,0,12,0,1.47-.48,2.07-1.95,1.93s-2.85.21-4.25-.21c-.37-1.19-1-1.24-2.1-.74-3.21,1.4-6.52,2.16-9.89.36a7.39,7.39,0,0,1-2.31-8c.14-.37.26-.9.89-.59.68,1.09.38,2.32.42,3.48.12,3.27,1.79,4.94,5.07,4.92a13,13,0,0,0,5.45-1.24,2.55,2.55,0,0,1,3.12.29,2.78,2.78,0,0,0,1.93.59c1.8.05,2.1-.2,2.11-2,0-3.94.07-7.88,0-11.82a4.25,4.25,0,0,0-4.41-4.58c-3.19-.19-6.36.39-9.54.49-1,0-1.91.35-1.78,1.66s1.21,1.29,2.12,1.16a26.56,26.56,0,0,1,6.36-.21c.87.09,2.22,0,1.77,1.66-3.26-.95-6.55-.18-9.81-.11-1.43,0-2-.3-2-1.67v-.56c0-2.75.06-2.86,2.84-3.25,3.72-.51,7.46-.22,11.19-.3A2.49,2.49,0,0,1,319.55,243.74Z"/><path class="cls-7" d="M236.21,243.74l.72.39a3,3,0,0,1,1.47,1.53h0a8.46,8.46,0,0,1,1,4.28c-.06,4-.07,8,0,12,0,1.47-.49,2.07-1.95,1.93s-2.85.21-4.25-.21c-.37-1.19-1-1.24-2.1-.74-3.22,1.4-6.53,2.16-9.89.36a7.39,7.39,0,0,1-2.32-8c.14-.37.27-.9.89-.59.69,1.09.39,2.32.43,3.48.11,3.27,1.79,4.94,5.07,4.92a13.07,13.07,0,0,0,5.45-1.24,2.55,2.55,0,0,1,3.12.29,2.78,2.78,0,0,0,1.93.59c1.79.05,2.1-.2,2.11-2,0-3.94.06-7.88,0-11.82a4.26,4.26,0,0,0-4.41-4.58c-3.2-.19-6.36.39-9.54.49-1,0-1.91.35-1.78,1.66s1.21,1.29,2.11,1.16a26.59,26.59,0,0,1,6.36-.21c.87.09,2.22,0,1.78,1.66-3.26-.95-6.55-.18-9.82-.11-1.42,0-2-.3-2-1.67v-.56c0-2.75.06-2.86,2.83-3.25,3.72-.51,7.47-.22,11.2-.3A2.51,2.51,0,0,1,236.21,243.74Z"/><path class="cls-8" d="M379.55,263.7a8.66,8.66,0,0,1-3.19-5.32c-.26-.95-.66-1.19-1.53-1.16-1.25,0-2.5,0-3.74,0-1.09,0-1.61-.39-1.61-1.53q0-8.62,0-17.24c0-1.16.57-1.5,1.64-1.49,2.81,0,5.62,0,8.43,0a2.88,2.88,0,0,1,3.09,3c.1,1.36-.62,3.21.34,3.94s2.49-.49,3.76-.91c4.11-1.34,8.21-2.75,12.36-4,2.24-.66,4.59-.17,6.9-.23a.92.92,0,0,1,.93.77.9.9,0,0,1-.56.23c-3-.1-6-.53-8.87.72a18.8,18.8,0,0,0-2.41.78,14.23,14.23,0,0,0-2.31.77,14.08,14.08,0,0,0-2.3.76,16.14,16.14,0,0,0-2.34.8c-1.61.43-3.14,1.07-4.73,1.54-1.6.12-1.95-.86-2.07-2.19s.43-2.84-.47-4.12a2.77,2.77,0,0,0-1.93-.6c-2.19,0-4.38,0-6.56,0-1.32,0-2,.5-2,1.87V254.4c0,1.35.6,1.92,1.93,1.91a21.16,21.16,0,0,1,3.56.1A2,2,0,0,1,377,257c.9,1.85.93,4.1,2.63,5.57a1.15,1.15,0,0,1,.22.76A.64.64,0,0,1,379.55,263.7Z"/><path class="cls-9" d="M71.78,243c3.44,0,6.88-.09,10.31,0a5.32,5.32,0,0,1,5.07,5.06c.06,2.31,0,4.63,0,6.94,0,1.52-.62,1.94-2,1.91-3.07-.07-6.13,0-9.19,0-.62,0-1.56-.3-1.52.82,0,.9.76,1.06,1.5,1,2.79-.21,5.58-.42,8.36-.71,1.7-.18,2.33.55,2.1,2.14-.17,1.18.55,2.53-.66,3.51a6.86,6.86,0,0,1-2.67.07c-.18-1,.69-.89,1.2-1,1.26-.34,1.22-1.26,1.09-2.22s-1-1-1.72-.9c-2.31.18-4.63.07-6.94.09a6.85,6.85,0,0,1-1.5-.11,2,2,0,0,1-1.84-2.23c.05-1.24.93-1.69,2.05-1.73,2.38-.09,4.75,0,7.13,0,3.88,0,3.68.3,3.68-3.65,0-6.37-1.62-8-7.95-8-2.11,0-4.25.34-6.33-.31A.4.4,0,0,1,71.78,243Z"/><path class="cls-9" d="M351.84,243c3.44,0,6.88-.09,10.32,0a5.32,5.32,0,0,1,5.06,5.06c.06,2.31,0,4.63,0,6.94.06,1.52-.62,1.94-2,1.91-3.06-.07-6.13,0-9.19,0-.62,0-1.55-.3-1.52.82,0,.9.76,1.06,1.5,1,2.79-.21,5.58-.42,8.36-.71,1.7-.18,2.33.55,2.11,2.14-.17,1.18.54,2.53-.67,3.51a6.86,6.86,0,0,1-2.67.07c-.18-1,.69-.89,1.2-1,1.26-.34,1.23-1.26,1.1-2.22s-1-1-1.73-.9c-2.31.18-4.63.07-6.94.09a6.89,6.89,0,0,1-1.5-.11,2,2,0,0,1-1.84-2.23c.05-1.24.93-1.69,2.05-1.73,2.38-.09,4.76,0,7.13,0,3.88,0,3.68.3,3.68-3.65,0-6.37-1.62-8-7.95-8-2.11,0-4.25.34-6.33-.31A.4.4,0,0,1,351.84,243Z"/><path class="cls-7" d="M270,249a1.45,1.45,0,0,1-.36,0c-3.15-.78-6.32-.11-9.47,0-1.41,0-2-.27-2-1.66v-.37c-.05-2.95.09-3.13,3-3.49a106.56,106.56,0,0,1,11-.27,2.59,2.59,0,0,1,1.54.58l.72.39a3,3,0,0,1,1.47,1.53h0a8.46,8.46,0,0,1,1,4.28c-.06,4-.07,8,0,12,0,1.47-.48,2.07-1.95,1.93s-2.85.21-4.25-.21h0c-.44-.75-.92-1.31-1.9-.69a.91.91,0,0,1-1.19-.1.78.78,0,0,1,.18-.55c1.19-1.07,2.38-1.25,3.65-.09a3.39,3.39,0,0,0,2.51.5,1.25,1.25,0,0,0,1.42-1.36c0-4.44.17-8.88-.07-13.31a4,4,0,0,0-3.87-3.68c-3.44-.3-6.85.3-10.27.51a1.4,1.4,0,0,0-1.49,1.73c.16,1.15,1,1.15,1.85,1a28.11,28.11,0,0,1,6.54-.24C269,247.48,270.32,247.36,270,249Z"/><path class="cls-10" d="M118.5,237h.37c2.55,0,4,2.28,2.66,4.52-.94,1.54-2.85.5-4.32.69-.68.08-1.74.35-1.9-.63a17.53,17.53,0,0,1,0-3.9c0-.6.65-.68,1.17-.68C117.13,237,117.81,237,118.5,237Z"/><path class="cls-11" d="M442.77,249.32a39.63,39.63,0,0,1,9.65,2.72,2.18,2.18,0,0,1,1.54,2.47c-.21,1.34-1.36,1.08-2.21,1.17a22.93,22.93,0,0,1-3,0c-.85,0-1.24.3-1.24,1.19s.48,1.19,1.3,1.14c.24,0,.49,0,.74,0,5.54,0,4.25.19,4.43,4.61.05,1.31-.52,1.77-1.78,1.76-3.49,0-7,0-10.48,0a7.69,7.69,0,0,0-2.74.41.57.57,0,0,1-.21-.51,1.05,1.05,0,0,1,.56-.66,4.89,4.89,0,0,1,1.45-.45c3.43-.13,6.86-.07,10.29,0,1.41,0,2-.44,2-1.94s-.51-2.06-2-1.94a14.1,14.1,0,0,1-2.43,0c-1.68-.13-2.33-.78-2.36-2.28s.67-2.3,2.41-2.45c.93-.07,1.87,0,2.8-.05.57,0,1.22-.06.91-1-1.43-1.37-3.35-1.58-5.11-2.1a27.07,27.07,0,0,0-4-.95c-.61-.08-1.44-.16-1.45-1.13A.87.87,0,0,1,442.77,249.32Z"/><path class="cls-9" d="M169.76,243c1.32,0,2.63-.05,3.94,0a5.37,5.37,0,0,1,5.06,5.08c.06,2.25,0,4.5.05,6.75.05,1.52-.47,2.14-2.05,2.09-3.06-.09-6.13,0-9.2,0-.62,0-1.55-.29-1.5.83,0,.9.78,1.06,1.52,1,2.6-.21,5.19-.53,7.8-.67s2.67-.08,2.64,2.49c0,.92.25,1.89-.28,2.76a.36.36,0,0,1-.56-.09c-.38-3.57-.38-3.57-4-3.54-1.68,0-3.37,0-5.05,0a5.23,5.23,0,0,1-1.67-.18,2,2,0,0,1-1.52-2.11,1.73,1.73,0,0,1,1.84-1.73c1.87-.15,3.74,0,5.61-.07,1.31,0,2.62,0,3.93,0,1,0,1.5-.47,1.5-1.48a47.43,47.43,0,0,0-.05-5.06,5.43,5.43,0,0,0-5.31-5.08,6,6,0,0,1-2.56-.37A.41.41,0,0,1,169.76,243Z"/><path class="cls-12" d="M303,254.58c-1.48,2.54-.89,5.8,1.57,8.65-1.67-.15-2-1.65-2.45-2.75a7.07,7.07,0,0,1,6.64-10c1.81,0,3.62,0,5.43,0,.46,0,1.11.17,1.12-.6s-.47-.88-1-.87a57.66,57.66,0,0,0-8.21.19c-2,.3-2.3.11-2.33-1.92-.06-3.51.27-4,3.77-4.23s7.11-.06,10.67-.07c.59,0,1.13.11,1.35.77-4.78-1-9.54-.29-14.29.26-1.18.13-1,1.09-1,1.87.05,2.76-.49,3.1,2.73,2.81,2-.18,4-.24,5.95-.39a4.17,4.17,0,0,1,2.83.72c.65,1.69.25,2.49-1.44,2.7a19.55,19.55,0,0,1-3.9,0C307.49,251.53,304.89,252.07,303,254.58Z"/><path class="cls-12" d="M236.21,243.74c-4.79-1-9.54-.29-14.3.26-1.18.13-1,1.09-1,1.87.06,2.76-.49,3.1,2.73,2.81,2-.18,4-.24,6-.39a4.17,4.17,0,0,1,2.83.72c.65,1.69.25,2.49-1.44,2.7a19.64,19.64,0,0,1-3.91,0c-2.94-.23-5.55.31-7.43,2.82-1.48,2.54-.89,5.8,1.57,8.65-1.67-.15-2-1.65-2.45-2.75a7.07,7.07,0,0,1,6.64-10c1.81,0,3.62,0,5.43,0,.45,0,1.11.17,1.12-.6s-.47-.88-1-.87a57.8,57.8,0,0,0-8.22.19c-2,.3-2.29.11-2.33-1.92,0-3.51.27-4,3.78-4.23s7.11-.06,10.67-.07C235.45,243,236,243.08,236.21,243.74Z"/><path class="cls-13" d="M428.76,264.4H397.17c-2.9,0-5.82-.26-8.55,1.08a.66.66,0,0,1,.08-.69,6.14,6.14,0,0,1,4.22-1.73q17.06-.07,34.1,0c1,0,2.05,0,2.6,1.1C429.46,264.71,429.11,264.54,428.76,264.4Z"/><path class="cls-9" d="M169.76,243v.34c-.58.64-1.36.53-2.09.56-.94,0-1.87,0-2.81,0a5.38,5.38,0,0,0-5.39,5.38,90.28,90.28,0,0,0,0,9.16c.15,3,1.85,4.61,4.79,4.58,3.67,0,7.35.28,11-.25a2.06,2.06,0,0,1,1.93.43l.53.07a1.49,1.49,0,0,1-1.25.68c-3.72.24-7.43.57-11.15.71a6.86,6.86,0,0,1-5.29-1.95,5,5,0,0,1-1.57-3.67c0-3.55,0-7.11,0-10.67A5.35,5.35,0,0,1,164,243C165.89,243,167.83,243,169.76,243Z"/><path class="cls-9" d="M83,263.6l2.78.06c-1.7.81-3.56.35-5.32.55-3.29.36-6.65,1.2-10-.16a5.33,5.33,0,0,1-3.58-5c0-3.56,0-7.11,0-10.67A5.32,5.32,0,0,1,71.78,243l0,.39c0,.69-.59.92-1.08,1.16a5.31,5.31,0,0,0-2.86,4.91c-.13,2.93-.12,5.86,0,8.79.12,3.18,1.82,4.77,5,4.8,2.61,0,5.23,0,7.85,0C81.47,263.1,82.32,263,83,263.6Z"/><path class="cls-9" d="M363,263.6l2.78.06c-1.7.81-3.56.35-5.32.55-3.29.36-6.65,1.2-10-.16a5.33,5.33,0,0,1-3.58-5q0-5.34,0-10.67a5.32,5.32,0,0,1,4.88-5.39l0,.39c0,.69-.59.92-1.08,1.16a5.31,5.31,0,0,0-2.86,4.91q-.18,4.39,0,8.79c.12,3.18,1.82,4.77,5,4.8,2.62,0,5.23,0,7.85,0C361.53,263.1,362.38,263,363,263.6Z"/><path class="cls-14" d="M442.77,249.32l-.94.11a3.25,3.25,0,0,1-2.51.35,17.25,17.25,0,0,0-6.2-1c-5.12.16-10.22-.41-15.33-.47A29.18,29.18,0,0,1,407.43,246a1.94,1.94,0,0,1-1.17-1.25c-.07-1.73-.51-3.48.31-5.15l.37,0c0,.75.07,1.49.07,2.24,0,2.94.17,3.27,3,4.05a45.18,45.18,0,0,0,10.47,1.59,95.15,95.15,0,0,0,11.19.14C435.64,247.31,439.06,248.88,442.77,249.32Z"/><path class="cls-15" d="M57.59,263.69c-2.56.7-5.17.24-7.76.26-.67,0-.78-.61-1-1.16-1.88-5-3.85-10-5.74-15-1-2.69-1.94-5.42-2.9-8.14-.16-.41.08-.51.42-.54,1,.62,1.13,1.76,1.48,2.72,2.46,6.72,5.1,13.38,7.61,20.08a1.67,1.67,0,0,0,.8,1c2.17.51,4.41-.09,6.59.37A1,1,0,0,1,57.59,263.69Z"/><path class="cls-12" d="M273.75,243.74c-4.8-1-9.57-.33-14.32.28-1.52.2-.85,1.57-1,2.46-.21,1.65.14,2.59,2.22,2.25a57.56,57.56,0,0,1,6.71-.42c.81,0,1.65-.11,2.23.66l-.06.45a2.54,2.54,0,0,0-2-.44c-2.67.14-5.37-.31-8,.35a1.24,1.24,0,0,1-1.06-.18c-1.1-1.14-.39-2.6-.56-3.92a1.24,1.24,0,0,1,1-1.53,14.16,14.16,0,0,1,2.9-.67c3.43-.09,6.87-.06,10.31-.06C272.85,243,273.49,243,273.75,243.74Z"/><path class="cls-15" d="M40.42,239.23l-.22.44C39,237,39.05,237,41.82,237h2.61c3.23,0,3.28,0,4.29,2.82.86,2.43,1.6,4.89,2.39,7.34a.58.58,0,0,1-.55.1c-1-.36-.91-1.35-1.22-2.12-.44-1.07-.66-2.23-1.16-3.28-1.08-4-2.59-4.82-6.56-4C40.66,238,41.08,239,40.42,239.23Z"/><path class="cls-7" d="M257.24,261.74a14.73,14.73,0,0,1-.7-5.11c.09-.73,0-1.51.67-2,.83.89.52,2,.53,3,.07,4.13,2.15,5.92,6.29,5.43,1.2-.14,2.38-.81,3.63-.27l.17.23c-2.24,1.8-6.16,1.9-9.06.22h0a3,3,0,0,1-1.18-1.06Z"/><path class="cls-16" d="M316.56,263.61c5.93.26,5.93.26,5.93-5.69,0-2.06-.06-4.13,0-6.19a17.13,17.13,0,0,0-.77-6.08,3.76,3.76,0,0,1,1.17,3.2c0,4.43,0,8.86,0,13.29,0,1.37-.46,2-1.84,1.86S318,264.45,316.56,263.61Z"/><path class="cls-16" d="M270.76,263.61c5.93.25,5.93.25,5.93-5.69,0-2.07-.06-4.13,0-6.19a17.13,17.13,0,0,0-.77-6.08,3.76,3.76,0,0,1,1.17,3.2c0,4.43,0,8.86,0,13.29,0,1.37-.46,2-1.84,1.86S272.21,264.44,270.76,263.61Z"/><path class="cls-16" d="M233.22,263.61c5.93.26,5.93.26,5.93-5.69,0-2.06-.06-4.13,0-6.19a16.9,16.9,0,0,0-.76-6.08,3.75,3.75,0,0,1,1.16,3.2c0,4.43,0,8.86,0,13.29,0,1.37-.46,2-1.84,1.86S234.67,264.45,233.22,263.61Z"/><path class="cls-17" d="M59.69,237.28c2.32-.68,4.68-.29,7-.24,1.05,0,1,.87.65,1.68-1,2.44-2,4.9-3,7.34a.66.66,0,0,1-.38-.39,1.93,1.93,0,0,1,.1-1.38c.73-1.71,1.31-3.49,2-5.2.37-.87.13-1.23-.84-1.26a29.27,29.27,0,0,1-5.21-.18A.84.84,0,0,1,59.69,237.28Z"/><path class="cls-5" d="M258.77,263.21a10.86,10.86,0,0,0,9.06-.22,4.24,4.24,0,0,0,1.06-.33c1.24-.82,1.68-.19,1.87,1-.86-.85-1.74-.49-2.69-.15-2.8,1-5.62,2-8.57.49C259.16,263.79,258.83,263.64,258.77,263.21Z"/><path class="cls-15" d="M63.86,247.85l-4,10.59a1.1,1.1,0,0,1-.45-.75c1-3.46,1.88-6.95,3.94-10A.59.59,0,0,1,63.86,247.85Z"/><path class="cls-18" d="M52.6,251.63l1,2.37,2.06-5.39a.35.35,0,0,1,.5.07c.37.68,0,1.3-.2,1.92-.72,1.32-.86,2.88-1.66,4.17-.83.72-1.41.47-1.74-.5a12.65,12.65,0,0,1-.59-1.7,1.35,1.35,0,0,1,.14-.86A.33.33,0,0,1,52.6,251.63Z"/><path class="cls-19" d="M438.94,264.37c0,.14,0,.28,0,.42a8.34,8.34,0,0,1-7.14.67.32.32,0,0,1,.07-.5,2.12,2.12,0,0,1,1.46-.21,7.31,7.31,0,0,0,3.82-.31C437.77,264.3,438.34,263.89,438.94,264.37Z"/><path class="cls-20" d="M56,248.61h-.33l2.27-6.75a.33.33,0,0,1,.5.1A11,11,0,0,1,56,248.61Z"/><path class="cls-21" d="M388.64,265.14c0,.11,0,.23,0,.34a7.21,7.21,0,0,1-6,0,.35.35,0,0,1,.14-.53C384.73,265.05,386.7,264.68,388.64,265.14Z"/><path class="cls-17" d="M52.6,251.63l-.33,0c-.64-.18-.85-.72-1.1-1.24-.22-1.08-1.15-2.06-.43-3.26h.37A21,21,0,0,1,52.6,251.63Z"/><path class="cls-17" d="M58.27,241.85h-.35c.45-1.58.7-3.24,1.77-4.58l.19.18A4.77,4.77,0,0,1,58.27,241.85Z"/><path class="cls-5" d="M57.59,263.69l-.44-.06a.76.76,0,0,1-.13-.48c.62-1.09.52-2.52,1.64-3.36a.44.44,0,0,1,.45.16A8.25,8.25,0,0,1,57.59,263.69Z"/><path class="cls-8" d="M382.62,265.15c0,.11,0,.22,0,.33a4.36,4.36,0,0,1-3.09-1.78l.17-.17A3.13,3.13,0,0,1,382.62,265.15Z"/><path class="cls-22" d="M431.79,265.14c0,.11,0,.22,0,.33-1.19.11-2.07-.66-3.08-1.07l.91-.09C430.69,263.81,431.26,264.42,431.79,265.14Z"/><path class="cls-5" d="M59.75,257.59c0,.28,0,.57.07.85-.24.5-.48,1-.71,1.51l-.18-.15C58.45,258.78,58.48,258,59.75,257.59Z"/><path class="cls-16" d="M238.4,245.66a4.77,4.77,0,0,1-1.47-1.53A1.43,1.43,0,0,1,238.4,245.66Z"/><path class="cls-16" d="M275.94,245.66a4.77,4.77,0,0,1-1.47-1.53A1.43,1.43,0,0,1,275.94,245.66Z"/><path class="cls-16" d="M321.74,245.66a4.74,4.74,0,0,1-1.46-1.53A1.43,1.43,0,0,1,321.74,245.66Z"/><path class="cls-17" d="M63.86,247.85l-.41,0a1.23,1.23,0,0,1,.72-1.93l.2.16Z"/><path class="cls-5" d="M257.59,262.15a2.09,2.09,0,0,1,1.18,1.06C258,263.26,257.68,262.85,257.59,262.15Z"/><path class="cls-1" d="M200.17,250.37c0-2.12,0-4.25,0-6.37,0-1,.3-1.46,1.38-1.42,1.75.08,3.5,0,5.25,0a3,3,0,0,1,3.13,3.21c.05,3.12.06,6.24,0,9.36a3,3,0,0,1-3.18,3.16c-1.75.06-3.5,0-5.24,0-1.15.05-1.36-.48-1.33-1.46C200.21,254.74,200.17,252.56,200.17,250.37Z"/><path class="cls-2" d="M325.94,259.12c4,.7,7.79.33,11.58.34,1.38,0,1.54-1.25,1.57-2.35s-.78-1.39-1.75-1.38a60.73,60.73,0,0,0-6.75.05c-3.68.42-6.21-4.54-5.13-7.35,1.31-3.44,2-4,5.75-4,3.25,0,6.51.07,9.76,0,1.57,0,1.49.83,1.5,1.9s.06,2-1.51,1.89c-2.56-.11-5.13,0-7.69-.05-1.42,0-2.46.42-2.4,1.89S332,252,333.38,252c2,0,4,0,6,0a5.31,5.31,0,0,1,5.15,7c-1,3.43-2.38,4.4-5.76,4.24-2.75-.13-5.51-.14-8.26,0-1.45.07-2.62-.75-4-.82-.56,0-.57-.57-.58-1Z"/><path class="cls-2" d="M90.47,250.35c0-3.75,0-7.5,0-11.25,0-1.18.3-1.64,1.57-1.66,4.5-.07,4.5-.12,4.5,4.3,0,2.56.12,2.7,2.66,2.16a22.61,22.61,0,0,1,6-.4,4.86,4.86,0,0,1,5,4.84c.09,4.62.3,9.27-.06,13.87-.22,2.79-2.82.74-4.25,1.25-1,.33-1.76.05-1.73-1.38.08-3.75,0-7.5,0-11.25,0-2.11-.42-2.53-2.49-2.59-5.08-.13-5.08-.13-5.08,4.89,0,2.94,0,5.88,0,8.81,0,1.26-.41,1.58-1.61,1.59-4.47,0-4.47.08-4.47-4.37Z"/><path class="cls-2" d="M267.66,262.76a15.6,15.6,0,0,1-5.67.78,4.6,4.6,0,0,1-4.76-4.67c-.07-1.43,0-2.85,0-4.28.79-2.54,2.79-3.32,5.15-3.43a52.52,52.52,0,0,1,5.75,0c1.74.11,2.25-.59,1.88-2.18-.25-1.26-1.25-1.17-2.18-1.21a55.9,55.9,0,0,0-7.08.49c-.93.07-1.86.09-1.68-1.27.15-1.07-.7-2.61,1.51-2.65,3.37-.07,6.7-.72,10.08-.66S276,245.59,276,249c0,4.19,0,8.38,0,12.57,0,1.32-.4,1.86-1.71,1.69s-2.81.48-3.89-1.29C269.92,261.09,268.61,262.4,267.66,262.76Z"/><path class="cls-2" d="M243,254.29c0-1.06,0-2.12,0-3.18s.45-2.69-1.67-2.52c-.43,0-.57-.42-.57-.82,0-1,0-2,0-3,0-.33.14-.75.44-.74,2.31.1,2.11-1.78,2.32-3.11s.7-1.62,1.84-1.49a10.46,10.46,0,0,0,1.12,0c2.76,0,2.79,0,2.9,2.76,0,1.24.48,1.77,1.8,1.78,3,0,3.43.69,2.94,3.77-.19,1.21-1,.87-1.69.89-3,.08-3,.06-3,3.08,0,1.68,0,3.37,0,5.06a1.9,1.9,0,0,0,2.17,2.18h1.31c2.74,0,2.65,0,2.76,2.68.07,1.56-.43,2.11-2,2s-3.24.11-4.86.1c-3.82,0-5.76-2-5.8-5.74C243,256.79,243,255.54,243,254.29Z"/><path d="M280.43,250.43c0-3.82,0-7.63,0-11.45,0-1.12.33-1.51,1.49-1.54,4.56-.13,4.56-.17,4.58,4.42,0,2.42.12,2.52,2.59,2.07s4.79-.81,7.21-.06,3.46,2.63,3.58,4.94c.15,3,.09,6,0,9a5.48,5.48,0,0,1-5.71,5.67c-4.06.06-8.13,0-12.2,0-1.28,0-1.58-.48-1.57-1.66C280.47,258.06,280.43,254.24,280.43,250.43Z"/><path class="cls-2" d="M152.51,248.1c0,2.76,0,5.51,0,8.26,0,2.05.59,2.81,2.66,3.08,1.86.25.84,1.62,1,2.48s-.19,1.4-1.22,1.36c-1.25,0-2.5,0-3.75,0a3.78,3.78,0,0,1-4-3.79c-.07-6.81,0-13.63,0-20.45,0-.95.31-1.28,1.29-1.34,4-.22,4-.25,4,3.84Z"/><path class="cls-2" d="M303,254.58c.73-2.52,2.71-3.29,5-3.44a46.93,46.93,0,0,1,5.81,0c1.68.1,2.36-.46,1.95-2.13-.22-1.28-1.23-1.19-2.15-1.23a57.5,57.5,0,0,0-7.07.48c-.9.08-1.89.16-1.7-1.23.15-1.05-.76-2.62,1.46-2.68,3.43-.08,6.82-.74,10.26-.65s5.22,1.93,5.25,5.26c0,4.25,0,8.5,0,12.74,0,1.24-.4,1.78-1.61,1.58s-3,.78-3.86-1.26c-.29-.69-1.26-.14-1.85.17a12.82,12.82,0,0,1-6.32,1.36c-3.42-.07-5.14-1.78-5.21-5.24C303,257.07,303,255.82,303,254.58Z"/><path class="cls-2" d="M219.66,254.58c.73-2.52,2.71-3.29,5-3.44a46.93,46.93,0,0,1,5.81,0c1.68.1,2.35-.46,1.95-2.13-.22-1.28-1.23-1.19-2.15-1.23a57.8,57.8,0,0,0-7.08.48c-.89.08-1.89.16-1.69-1.23.14-1.05-.76-2.62,1.46-2.68,3.43-.08,6.82-.74,10.26-.65s5.21,1.93,5.25,5.26c0,4.25,0,8.5,0,12.74,0,1.24-.4,1.78-1.61,1.58s-3,.78-3.86-1.26c-.29-.69-1.27-.14-1.85.17a12.84,12.84,0,0,1-6.33,1.36c-3.41-.07-5.13-1.78-5.2-5.24C219.64,257.07,219.66,255.82,219.66,254.58Z"/><path class="cls-23" d="M431.79,265.14l-2.12-.83a3.38,3.38,0,0,0-2.46-.62c-11.41,0-22.81,0-34.22,0-1.68,0-3,.84-4.35,1.48a12.15,12.15,0,0,1-6,0l-2.9-1.62c-.05-.21-.11-.42-.16-.62.85-.42,1.42.22,2.05.56a8.77,8.77,0,0,0,9.84-1.06c2.57-2.25,2.66-5.19,1.88-8.29-.23-.9-1-1.84,0-2.76a10,10,0,0,1,5-.05,2.32,2.32,0,0,1,1.28,1.61,23,23,0,0,1,.09,3c.05,2,.29,2.29,2.28,2.3,5.49,0,11,0,16.47,0a63.13,63.13,0,0,1,7.28.12,1.48,1.48,0,0,1,1,1c.89,2.68,3,3.94,5.49,4.83.46.16,1.21.08,1.12.94Z"/><path class="cls-24" d="M376.32,256.7c-1.68,0-3.36,0-5.05.1-1.11.05-1.37-.49-1.36-1.48,0-5.37,0-10.74,0-16.1,0-.81.07-1.53,1.15-1.53,3,0,6,0,9,0a1.94,1.94,0,0,1,1.48.72,24.17,24.17,0,0,1,.13,4.81,2.39,2.39,0,0,0,.91,2.12c.3,1.07-.37,2-.31,3.1-.56,1.51-2.17,1.94-3.12,3.05-1.24,1-1.55,2.46-2,3.84C376.94,255.87,377,256.49,376.32,256.7Z"/><path class="cls-25" d="M378.87,251.24c.79-1.12,2.13-1.61,3-2.59,3.59-2.18,9-.73,11.21,3,.21,1.47,1.1,2.76,1.15,4.28.08,2.83-.31,5.55-2.93,7.21-3.16,2-6.51,2.67-10,.73l-1.77-1a7.48,7.48,0,0,1-2.6-5.72A8.18,8.18,0,0,1,378.87,251.24Z"/><path class="cls-26" d="M406.57,239.63l0,5.22c-1.07-.32-.81-1.25-.85-2-.16-2.32-.14-2.31-2.5-2.35-1.86,0-3.71.09-5.57.12a.85.85,0,0,1-.5-.37C400.23,238.76,403.4,239.07,406.57,239.63Z"/><path class="cls-27" d="M378.87,251.24a18,18,0,0,0-1.91,5.95l-.64-.49C377,254.78,377,252.56,378.87,251.24Z"/><path class="cls-26" d="M382.61,245.58c-1.09-.21-1.08-1.08-1.09-1.89,0-1.75,0-3.5,0-5.25.92,1.49.35,3.14.41,4.71,0,1.27.38,1.9,1.73,1.61l.17.19C383.66,245.62,383.15,245.62,382.61,245.58Z"/><path class="cls-26" d="M383.67,244.76a15.4,15.4,0,0,1,4.52-1.49l.14.26a4.23,4.23,0,0,1-4.53,1.39A1.83,1.83,0,0,0,383.67,244.76Z"/><path class="cls-26" d="M388.19,243.27a3.78,3.78,0,0,1,2.24-.76l.15.25a1.61,1.61,0,0,1-2.27.66Z"/><path class="cls-26" d="M392.68,241.75a3.9,3.9,0,0,1,2.26-.75l.16.22c-.43.88-1.21.94-2.05.89A.69.69,0,0,1,392.68,241.75Z"/><path class="cls-26" d="M394.94,241a3.86,3.86,0,0,1,2.25-.74l.12.16a1.5,1.5,0,0,1-2.25.75Z"/><path class="cls-26" d="M390.43,242.51a3.88,3.88,0,0,1,2.25-.76l.13.17a1.51,1.51,0,0,1-2.25.75A1.83,1.83,0,0,0,390.43,242.51Z"/><path d="M83,263.6c-3.3.06-6.6.17-9.9.17-3.79,0-5.7-2-5.73-5.8,0-2.37.1-4.74,0-7.11-.19-3.54.85-6.24,4.47-7.44,2.93,0,5.86,0,8.79,0,3.9,0,6.1,2.26,6.12,6.2,0,1.68,0,3.37,0,5.05.05,1.18-.4,1.51-1.52,1.49-3.24-.06-6.49,0-9.73,0-1,0-1.77.15-1.72,1.37a1.54,1.54,0,0,0,1.77,1.69c3-.11,6-.16,9-.4,1.12-.09,1.43.18,1.48,1.23C86.13,262.83,86.16,262.83,83,263.6Z"/><path d="M363,263.6c-3.3.06-6.6.17-9.9.17-3.78,0-5.69-2-5.72-5.8,0-2.37.1-4.74,0-7.11-.19-3.54.85-6.24,4.47-7.44,2.93,0,5.86,0,8.8,0,3.89,0,6.09,2.26,6.12,6.2,0,1.68-.06,3.37,0,5.05.06,1.17-.39,1.51-1.52,1.49-3.24-.06-6.49,0-9.73,0-1,0-1.77.15-1.72,1.37a1.54,1.54,0,0,0,1.77,1.69c3-.11,6-.16,9-.4,1.11-.09,1.42.18,1.47,1.23C366.19,262.83,366.22,262.83,363,263.6Z"/><path class="cls-25" d="M433.3,265.15c-1.26-.59-2.56-1.06-3.81-1.65-2.08-1-2.87-2.71-3.31-4.74-1-2.33.16-6.46,2.39-8.41.38-.32.8-.58,1.17-.91a3.12,3.12,0,0,1,.45-.29,18,18,0,0,1,1.88-.63c.32-.18.71,0,1-.17,2.26-.51,4.31.27,6.36,1.05a4,4,0,0,0,.71.44c3.3,2.6,3.95,6,3,9.88a3.42,3.42,0,0,1-.5,1,11.08,11.08,0,0,1-3.27,3.27l-.42.39C437.1,264.89,435.31,265.85,433.3,265.15Z"/><path class="cls-28" d="M452.85,253c1.11,1.09.77,1.79-.64,2a29.14,29.14,0,0,1-3.74,0c-1.34,0-1.66.73-1.65,1.93s.47,1.74,1.64,1.74,2.25.05,3.38,0c1.32-.07,1.72.55,1.75,1.8.07,3.2.11,3.21-3.14,3.2s-6.62-.06-9.93-.09c-.11-.73.36-.88.94-.92,3,.06,6,0,9,0,1,0,1.87-.14,1.84-1.49s-.79-1.53-1.84-1.53l-1.86,0a2.57,2.57,0,0,1-2.83-1.93c-.4-1.5.11-2.61,1.62-3.52,1.53-.29,3.1.12,4.62-.27a2.31,2.31,0,0,0,.52-.56A1.2,1.2,0,0,1,452.85,253Z"/><path class="cls-29" d="M452.85,253l0,.43c-.67.27-1.19-.17-1.76-.38a37.35,37.35,0,0,0-9.72-2.37c-.71,0-1.06-.7-1.64-1l-.25-.35,2.38,0c3.28,1.12,6.79,1.43,10,2.92C452.2,252.53,452.62,252.63,452.85,253Z"/><path class="cls-30" d="M441.2,262.93a.84.84,0,0,0-.68.66l-1.16.39q1.47-1.68,3-3.35a.86.86,0,0,1,.27.74A2,2,0,0,1,441.2,262.93Z"/><path d="M177.21,263.23a124,124,0,0,1-12.49.55c-3.81,0-5.73-2-5.76-5.77,0-2.87,0-5.73,0-8.6,0-3.68,2.28-5.91,5.95-6l4.85-.1c1.59.33,3.22-.12,4.82.46a5.33,5.33,0,0,1,3.7,5.11c.14,1.92,0,3.87.06,5.81,0,1.21-.45,1.47-1.55,1.45-3.25-.05-6.5,0-9.75,0-.92,0-1.66.11-1.66,1.24s.43,1.85,1.63,1.81c2.94-.07,5.9,0,8.8-.35,1.62-.19,1.86.35,1.76,1.65C177.5,261.41,177.75,262.37,177.21,263.23Z"/><path class="cls-31" d="M390.56,242.67a6,6,0,0,0,2.25-.75,5.82,5.82,0,0,0,2.25-.75,5.76,5.76,0,0,0,2.25-.75c2.56-.78,5.19-.36,7.79-.47.92,0,1.12.44,1.17,1.27.08,1.21-.37,2.48.34,3.63l.79.75a27.91,27.91,0,0,0,10.52,2.45c.3,0,.62,0,.82.28-.2.68-.8.76-1.34.77-5.52.15-10.76,1.92-16.15,2.77a3.77,3.77,0,0,1-2.89-.25l-5.25.07c-2-1.7-4-3.28-6.8-3.62-1.59-.19-2.91.67-4.41.58,0-1.07-.35-2.24.71-3.07l1.19-.66a12.08,12.08,0,0,0,4.51-1.5A5.87,5.87,0,0,0,390.56,242.67Z"/><path class="cls-26" d="M418.64,248.25c-3.31.29-6.4-.67-9.48-1.63a3.36,3.36,0,0,1-1.76-1,55.53,55.53,0,0,0,8,1.9c5.65.65,11.33.47,17,.79.25,0,.49,0,.74.06-.25.37-.66.19-1,.3-.58.27-1.28.26-1.8.71h0a.92.92,0,0,1-.65.08c-2.41-.53-4.86-.17-7.28-.28C421.07,249.1,419.72,249.2,418.64,248.25Z"/><path class="cls-32" d="M40.42,239.23c-.51-1.41-.13-2.1,1.48-1.89a13.12,13.12,0,0,0,1.66,0c4.19,0,4.34.13,5,4.49a.47.47,0,0,1-.53,0,1.8,1.8,0,0,1-.62-.92c-.83-3.08-1.44-2.68-4.41-2.75-1.36,0-1.41.57-1.05,1.63.77,2.24,1.64,4.44,2.51,6.64,1.79,4.52,3.37,9.12,5.21,13.62a7.31,7.31,0,0,1,.6,2.72,1,1,0,0,1-.27.5c-1.45-2.19-2-4.75-3-7.13C44.74,250.56,42.89,244.78,40.42,239.23Z"/><path class="cls-33" d="M50,263.31l.06-.51a31.84,31.84,0,0,1,6.69.11,1,1,0,0,1,.48.42,1.09,1.09,0,0,1-.07.3C54.77,263.44,52.35,264,50,263.31Z"/><path class="cls-33" d="M48.14,241.85h.41c1.16,1.57,1,3.69,2.19,5.27-.1,1.19.85,2.13.8,3.31a.77.77,0,0,1,0,.85c-.78,0-.86-.65-1-1.12-.91-2.32-1.72-4.68-2.46-7.07A1.15,1.15,0,0,1,48.14,241.85Z"/><path class="cls-34" d="M58.27,241.85l1.61-4.39c2,0,4-.06,6-.11,1.17,0,1.4.35.89,1.44-.88,1.9-1.3,4-2.4,5.81a1,1,0,0,1-.39-.78c.26-1.91,1.3-3.59,1.77-5.5a27.05,27.05,0,0,0-3.21-.1,2,2,0,0,0-2.32,1.63c-1,3-2,6-3.1,9-.24.63-.33,1.35-1,1.74a.55.55,0,0,1-.55-.12l.44-1.84A42.36,42.36,0,0,0,58.27,241.85Z"/><path class="cls-33" d="M64.27,243.73l.06.87c0,.43-.11.86-.16,1.3a3,3,0,0,0-.72,1.93,76.14,76.14,0,0,0-3.7,9.76,3.32,3.32,0,0,0-.82,2.21c-.92,1-.83,2.51-1.71,3.53l-.19-.19c-.43-.6-.19-1.19,0-1.79,1.91-5.35,4-10.64,6-16C63.25,244.75,63.28,243.83,64.27,243.73Z"/><path class="cls-33" d="M55.54,250.45l.47,0c.06,1.92-.14,3.72-1.91,4.92a.68.68,0,0,1,0-.84Z"/><path class="cls-34" d="M54.11,254.56l0,.79c-.5.89-1.17.75-1.58.06-.53-.87-1.19-1.79-.82-2.94a.36.36,0,0,1,.52-.11c.26.68.57,1.35.78,2C53.3,255.3,53.72,254.72,54.11,254.56Z"/><path class="cls-35" d="M52.25,252.36h-.33a.87.87,0,0,1-.45-1.09l.07-.85.73,1.19Z"/><path class="cls-1" d="M265.82,258.85c-1.31-.05-2.5,0-2.56-1.52s1.17-1.66,2.35-1.67c1,0,2,0,3,0,.76,0,1.38.1,1.41,1s-.11,1.51-1.1,1.66S266.71,258.71,265.82,258.85Z"/><path class="cls-1" d="M286.65,253.54V253c0-4.65.37-5,5.15-4.52,1.07.1,1.61.55,1.61,1.62v6.75a.53.53,0,0,1,0,.18c-1.08,2.92-3.53,1-5.31,1.45-1.28.33-1.51-.65-1.46-1.73S286.65,254.6,286.65,253.54Z"/><path class="cls-1" d="M311.61,258.85c-1.32-.05-2.49-.05-2.55-1.53s1-1.65,2.18-1.66,2.12,0,3.18,0c.77,0,1.38.11,1.4,1.07,0,.81-.13,1.5-1.11,1.64S312.5,258.71,311.61,258.85Z"/><path class="cls-1" d="M229.41,255.66c.62,0,1.25,0,1.87,0s1.19.28,1.2,1.07,0,1.47-.95,1.57a19.58,19.58,0,0,1-3.88.53c-1-.07-1.91-.29-1.94-1.53s.92-1.61,2-1.64Z"/><path class="cls-24" d="M418.64,248.25c3.19.58,6.43.32,9.65.38.63,0,1.25,0,1.64.63-1.68,1.67-3.35,3.34-3.75,5.84-.06.36-.18.71-.21,1.09-.15,2.36-.15,2.36-2.6,2.36-7.31,0-14.63-.05-21.94,0-1.57,0-1.95-.56-1.93-1.95a8.39,8.39,0,0,0-.34-3.88l-.8-1.14a64.63,64.63,0,0,0,10.32-1.9c2.49-.61,5.1-.75,7.65-1.11C417.1,248.5,418,248.91,418.64,248.25Z"/><path class="cls-36" d="M399.16,252.76c1.21,1.12.68,2.58.69,3.89s.31,1.76,1.67,1.75c7.48-.06,15,0,22.43,0,1.19,0,1.84-.25,1.85-1.64a8.37,8.37,0,0,1,4.13-7.47l.37.09c-1.45,1.49-3.05,2.83-3.66,5a18.32,18.32,0,0,0-.46,4.41c-8.25,0-16.5,0-24.74,0-1.75,0-2.38-.63-2.3-2.29C399.2,255.26,399.15,254,399.16,252.76Z"/><path class="cls-37" d="M388.64,258.75l-1.14,1.12c-2.9,1-4.53.26-5.42-2.2-.37-1,.2-1.78.42-2.65,1-1.25,2.19-2.12,4-1.66A3.69,3.69,0,0,1,388.64,258.75Z"/><path class="cls-38" d="M388.64,258.75c0-.43,0-.86.11-1.28a3.06,3.06,0,0,0-1.3-3.37,3.29,3.29,0,0,0-4,.22c-.3.22-.57.47-.85.71a.28.28,0,0,1-.13-.29c0-.1.06-.15.1-.15,1.81-2,3.35-2.29,5.27-.87A3.54,3.54,0,0,1,388.64,258.75Z"/><path class="cls-38" d="M382.61,254.59l0,.44c-.59,3.25.36,5,2.84,5.07a12.63,12.63,0,0,0,2-.23c-1.95,1.38-2.91,1.34-4.53-.21S381.2,256.7,382.61,254.59Z"/><path class="cls-1" d="M77.1,251.63c-.43,0-.87,0-1.31,0-.87,0-2,.33-1.94-1.25,0-1.34.28-2.38,1.9-2.41h1.87c2.1,0,2.53.47,2.59,2.27.07,2-1.41,1.22-2.36,1.38A3.75,3.75,0,0,1,77.1,251.63Z"/><path class="cls-1" d="M357.17,251.63c-.44,0-.88,0-1.31,0-.87,0-2,.34-1.94-1.25,0-1.34.27-2.38,1.89-2.41.68,0,1.37,0,2.06,0,1.63-.09,2.39.57,2.41,2.28,0,2-1.41,1.22-2.36,1.38A3.76,3.76,0,0,1,357.17,251.63Z"/><path class="cls-39" d="M438.56,256.8a4.24,4.24,0,0,1-4,4.15,4.11,4.11,0,0,1-.07-8.2A4.17,4.17,0,0,1,438.56,256.8Z"/><path class="cls-40" d="M439.7,249.75c.65-.07,1,.53,1.47.74,2.05,1,2.54,2.94,2.78,5,0,.9,0,1.8,0,2.7a2.61,2.61,0,0,1-.67,1.66.44.44,0,0,1-.55,0A9.5,9.5,0,0,0,439.7,249.75Z"/><path class="cls-36" d="M430.31,249.36c.37-.83,1.06-.84,1.8-.71A2.06,2.06,0,0,1,430.31,249.36Z"/><path class="cls-41" d="M442.69,259.87h.37c.36.8.23,1.37-.75,1.5,0-.25,0-.5,0-.74S442.57,260.12,442.69,259.87Z"/><path class="cls-42" d="M442.31,261.37a1.88,1.88,0,0,0,.75-1.5c.14-.49.27-1,.41-1.47a5.92,5.92,0,0,0,0-3.07c0-2-1.19-3.39-2.3-4.84.81-.82,1.7-.08,2.43,0,3.18.6,6.39,1.22,9.22,2.93v.79c-1.74.46-3.54-.15-5.28.34s-1.55,1.78-1.38,3,1.14,1.65,2.35,1.54c.68-.06,1.39.09,2.05,0,2-.35,2.43.62,2.32,2.41-.07,1.23-.3,1.8-1.67,1.75-2.87-.09-5.74,0-8.61,0-.49,0-1,.1-1.4-.32Z"/><path class="cls-29" d="M447.54,254.6c1.72-.73,3.52-.19,5.28-.34C451.1,255,449.3,254.45,447.54,254.6Z"/><path class="cls-1" d="M168.54,251.63h-1.31c-.87,0-1.81.19-1.77-1.23,0-1.22.16-2.29,1.68-2.41.75-.06,1.5,0,2.25,0,1.61-.09,2.41.53,2.44,2.26,0,2-1.39,1.26-2.35,1.4A5.9,5.9,0,0,1,168.54,251.63Z"/><path d="M51.47,251.27l.45,1.09c-.17,1.07.71,1.8.88,2.79.14.78.81.54,1.33.2,1.13-1.43,1.16-3.28,1.88-4.87,1.35-3.88,2.76-7.76,4-11.67.27-.83.59-1.11,1.4-1.08a24.74,24.74,0,0,0,3.55,0c1.44-.15,1.38.63,1,1.54-.55,1.51-1.18,3-1.78,4.48q-3.19,8.49-6.4,17a6.13,6.13,0,0,0-.84,2.42c-2.34,0-4.69.54-7-.34-2.95-7.94-5.84-15.9-8.9-23.79-.55-1.42,0-1.29.91-1.27h.37c5,.11,4-.86,5.71,4.11Z"/><path class="cls-43" d="M431.42,256.93a3.23,3.23,0,0,1,3.16-3.42,3.66,3.66,0,0,1,3.53,3.19,3.77,3.77,0,0,1-3.51,3.48A3.36,3.36,0,0,1,431.42,256.93Z"/><path class="cls-41" d="M443.47,255.33a3.27,3.27,0,0,1,0,3.07Z"/></g></g></svg>